<?xml version="1.0" encoding="utf-8" standalone="no"?>
<!DOCTYPE svg PUBLIC "-//W3C//DTD SVG 1.1//EN"
  "http://www.w3.org/Graphics/SVG/1.1/DTD/svg11.dtd">
<!-- Created with matplotlib (http://matplotlib.org/) -->
<svg height="432pt" version="1.1" viewBox="0 0 576 432" width="576pt" xmlns="http://www.w3.org/2000/svg" xmlns:xlink="http://www.w3.org/1999/xlink">
 <defs>
  <style type="text/css">
*{stroke-linecap:butt;stroke-linejoin:round;}
  </style>
 </defs>
 <g id="figure_1">
  <g id="patch_1">
   <path d="
M0 432
L576 432
L576 0
L0 0
z
" style="fill:#ffffff;"/>
  </g>
  <g id="axes_1">
   <g id="patch_2">
    <path d="
M72 388.8
L518.4 388.8
L518.4 43.2
L72 43.2
z
" style="fill:#ffffff;"/>
   </g>
   <g id="line2d_1">
    <path clip-path="url(#p7ff5b81e1d)" d="
M121.181 226.368
L158.283 229.824
L195.398 222.912
L232.5 226.368
L269.589 226.368
L306.692 222.912
L343.794 226.368
L380.883 226.368
L417.986 229.824
L455.1 226.368" style="fill:none;stroke:#0000ff;stroke-linecap:square;"/>
    <defs>
     <path d="
M0 3
C0.795609 3 1.55874 2.6839 2.12132 2.12132
C2.6839 1.55874 3 0.795609 3 0
C3 -0.795609 2.6839 -1.55874 2.12132 -2.12132
C1.55874 -2.6839 0.795609 -3 0 -3
C-0.795609 -3 -1.55874 -2.6839 -2.12132 -2.12132
C-2.6839 -1.55874 -3 -0.795609 -3 0
C-3 0.795609 -2.6839 1.55874 -2.12132 2.12132
C-1.55874 2.6839 -0.795609 3 0 3
z
" id="mdb00ba95ec" style="stroke:#000000;stroke-width:0.5;"/>
    </defs>
    <g clip-path="url(#p7ff5b81e1d)">
     <use style="fill:#0000ff;stroke:#000000;stroke-width:0.5;" x="121.180526733" xlink:href="#mdb00ba95ec" y="226.368"/>
     <use style="fill:#0000ff;stroke:#000000;stroke-width:0.5;" x="158.282741547" xlink:href="#mdb00ba95ec" y="229.824"/>
     <use style="fill:#0000ff;stroke:#000000;stroke-width:0.5;" x="195.397712708" xlink:href="#mdb00ba95ec" y="222.912"/>
     <use style="fill:#0000ff;stroke:#000000;stroke-width:0.5;" x="232.499931335" xlink:href="#mdb00ba95ec" y="226.368"/>
     <use style="fill:#0000ff;stroke:#000000;stroke-width:0.5;" x="269.589393616" xlink:href="#mdb00ba95ec" y="226.368"/>
     <use style="fill:#0000ff;stroke:#000000;stroke-width:0.5;" x="306.691612244" xlink:href="#mdb00ba95ec" y="222.912"/>
     <use style="fill:#0000ff;stroke:#000000;stroke-width:0.5;" x="343.793827057" xlink:href="#mdb00ba95ec" y="226.368"/>
     <use style="fill:#0000ff;stroke:#000000;stroke-width:0.5;" x="380.883289337" xlink:href="#mdb00ba95ec" y="226.368"/>
     <use style="fill:#0000ff;stroke:#000000;stroke-width:0.5;" x="417.985507965" xlink:href="#mdb00ba95ec" y="229.824"/>
     <use style="fill:#0000ff;stroke:#000000;stroke-width:0.5;" x="455.100479126" xlink:href="#mdb00ba95ec" y="226.368"/>
    </g>
   </g>
   <g id="line2d_2">
    <path clip-path="url(#p7ff5b81e1d)" d="
M121.181 225.991
L158.283 226.075
L195.398 226.159
L232.5 226.242
L269.589 226.326
L306.692 226.41
L343.794 226.494
L380.883 226.577
L417.986 226.661
L455.1 226.745" style="fill:none;stroke:#ff0000;stroke-dasharray:6.000000,6.000000;stroke-dashoffset:0.0;"/>
   </g>
   <g id="line2d_3">
    <path clip-path="url(#p7ff5b81e1d)" d="
M72 388.8
L518.4 388.8" style="fill:none;stroke:#0000ff;stroke-linecap:square;"/>
   </g>
   <g id="line2d_4">
    <path clip-path="url(#p7ff5b81e1d)" d="
M72 43.2
L518.4 43.2" style="fill:none;stroke:#0000ff;stroke-linecap:square;"/>
   </g>
   <g id="matplotlib.axis_1">
    <g id="xtick_1">
     <g id="line2d_5">
      <defs>
       <path d="
M0 0
L0 -4" id="mc7db9fdffb" style="stroke:#000000;stroke-width:0.5;"/>
      </defs>
      <g>
       <use style="stroke:#000000;stroke-width:0.5;" x="72.0" xlink:href="#mc7db9fdffb" y="388.8"/>
      </g>
     </g>
     <g id="line2d_6">
      <defs>
       <path d="
M0 0
L0 4" id="m5a7d422ac3" style="stroke:#000000;stroke-width:0.5;"/>
      </defs>
      <g>
       <use style="stroke:#000000;stroke-width:0.5;" x="72.0" xlink:href="#m5a7d422ac3" y="43.2"/>
      </g>
     </g>
     <g id="text_1">
      <!-- 0 -->
      <defs>
       <path d="
M56.9844 36.375
Q56.9844 16.7969 50.8594 7.64062
Q44.7344 -1.51562 31.8438 -1.51562
Q18.75 -1.51562 12.7188 7.76562
Q6.6875 17.0469 6.6875 36.2812
Q6.6875 55.6719 12.7812 64.9219
Q18.8906 74.1719 31.8438 74.1719
Q44.9219 74.1719 50.9531 64.7656
Q56.9844 55.375 56.9844 36.375
M44.1406 14.2031
Q45.8438 18.1719 46.4531 23.5156
Q47.0781 28.8594 47.0781 36.375
Q47.0781 43.7969 46.4531 49.2656
Q45.8438 54.7344 44.0938 58.5469
Q42.3906 62.3125 39.4219 64.2031
Q36.4688 66.1094 31.8438 66.1094
Q27.25 66.1094 24.2344 64.2031
Q21.2344 62.3125 19.4844 58.4531
Q17.8281 54.8281 17.2188 49.0156
Q16.6094 43.2188 16.6094 36.2812
Q16.6094 28.6562 17.1406 23.5312
Q17.6719 18.4062 19.4375 14.3594
Q21.0469 10.5469 24 8.54688
Q26.9531 6.54688 31.8438 6.54688
Q36.4219 6.54688 39.4531 8.45312
Q42.4844 10.3594 44.1406 14.2031" id="Verdana-30"/>
      </defs>
      <g transform="translate(68.9821875 401.918125)scale(0.12 -0.12)">
       <use xlink:href="#Verdana-30"/>
      </g>
     </g>
    </g>
    <g id="xtick_2">
     <g id="line2d_7">
      <g>
       <use style="stroke:#000000;stroke-width:0.5;" x="135.771427155" xlink:href="#mc7db9fdffb" y="388.8"/>
      </g>
     </g>
     <g id="line2d_8">
      <g>
       <use style="stroke:#000000;stroke-width:0.5;" x="135.771427155" xlink:href="#m5a7d422ac3" y="43.2"/>
      </g>
     </g>
     <g id="text_2">
      <!-- 5000 -->
      <defs>
       <path d="
M56.5 23.0938
Q56.5 18.0156 54.6406 13.375
Q52.7812 8.73438 49.5625 5.5625
Q46.0469 2.15625 41.1875 0.3125
Q36.3281 -1.51562 29.9375 -1.51562
Q23.9688 -1.51562 18.4531 -0.265625
Q12.9375 0.984375 9.125 2.73438
L9.125 13.0312
L9.8125 13.0312
Q13.8125 10.5 19.1875 8.71875
Q24.5625 6.9375 29.7344 6.9375
Q33.2031 6.9375 36.4531 7.90625
Q39.7031 8.89062 42.2344 11.3281
Q44.3906 13.4219 45.4844 16.3438
Q46.5781 19.2812 46.5781 23.1406
Q46.5781 26.9062 45.2812 29.4844
Q44 32.0781 41.7031 33.6406
Q39.1562 35.5 35.5156 36.25
Q31.8906 37.0156 27.3906 37.0156
Q23.0938 37.0156 19.1094 36.4219
Q15.1406 35.8438 12.25 35.25
L12.25 72.7031
L56 72.7031
L56 64.1562
L21.6875 64.1562
L21.6875 44.8281
Q23.7812 45.0156 25.9688 45.1094
Q28.1719 45.2188 29.7812 45.2188
Q35.6875 45.2188 40.125 44.2188
Q44.5781 43.2188 48.2969 40.6719
Q52.2031 37.9844 54.3438 33.7344
Q56.5 29.5 56.5 23.0938" id="Verdana-35"/>
      </defs>
      <g transform="translate(121.455802155 401.918125)scale(0.12 -0.12)">
       <use xlink:href="#Verdana-35"/>
       <use x="63.57421875" xlink:href="#Verdana-30"/>
       <use x="127.1484375" xlink:href="#Verdana-30"/>
       <use x="190.72265625" xlink:href="#Verdana-30"/>
      </g>
     </g>
    </g>
    <g id="xtick_3">
     <g id="line2d_9">
      <g>
       <use style="stroke:#000000;stroke-width:0.5;" x="199.542858124" xlink:href="#mc7db9fdffb" y="388.8"/>
      </g>
     </g>
     <g id="line2d_10">
      <g>
       <use style="stroke:#000000;stroke-width:0.5;" x="199.542858124" xlink:href="#m5a7d422ac3" y="43.2"/>
      </g>
     </g>
     <g id="text_3">
      <!-- 10000 -->
      <defs>
       <path d="
M52.9375 0
L13.5781 0
L13.5781 7.42188
L28.7188 7.42188
L28.7188 56.1562
L13.5781 56.1562
L13.5781 62.7969
Q16.6562 62.7969 20.1719 63.2969
Q23.6875 63.8125 25.4844 64.7969
Q27.7344 66.0156 29.0312 67.8906
Q30.3281 69.7812 30.5156 72.9531
L38.0938 72.9531
L38.0938 7.42188
L52.9375 7.42188
z
" id="Verdana-31"/>
      </defs>
      <g transform="translate(181.679733124 401.918125)scale(0.12 -0.12)">
       <use xlink:href="#Verdana-31"/>
       <use x="63.57421875" xlink:href="#Verdana-30"/>
       <use x="127.1484375" xlink:href="#Verdana-30"/>
       <use x="190.72265625" xlink:href="#Verdana-30"/>
       <use x="254.296875" xlink:href="#Verdana-30"/>
      </g>
     </g>
    </g>
    <g id="xtick_4">
     <g id="line2d_11">
      <g>
       <use style="stroke:#000000;stroke-width:0.5;" x="263.314285278" xlink:href="#mc7db9fdffb" y="388.8"/>
      </g>
     </g>
     <g id="line2d_12">
      <g>
       <use style="stroke:#000000;stroke-width:0.5;" x="263.314285278" xlink:href="#m5a7d422ac3" y="43.2"/>
      </g>
     </g>
     <g id="text_4">
      <!-- 15000 -->
      <g transform="translate(245.451160278 401.918125)scale(0.12 -0.12)">
       <use xlink:href="#Verdana-31"/>
       <use x="63.57421875" xlink:href="#Verdana-35"/>
       <use x="127.1484375" xlink:href="#Verdana-30"/>
       <use x="190.72265625" xlink:href="#Verdana-30"/>
       <use x="254.296875" xlink:href="#Verdana-30"/>
      </g>
     </g>
    </g>
    <g id="xtick_5">
     <g id="line2d_13">
      <g>
       <use style="stroke:#000000;stroke-width:0.5;" x="327.085712433" xlink:href="#mc7db9fdffb" y="388.8"/>
      </g>
     </g>
     <g id="line2d_14">
      <g>
       <use style="stroke:#000000;stroke-width:0.5;" x="327.085712433" xlink:href="#m5a7d422ac3" y="43.2"/>
      </g>
     </g>
     <g id="text_5">
      <!-- 20000 -->
      <defs>
       <path d="
M57.0781 0
L7.85938 0
L7.85938 10.2031
Q12.9844 14.5938 18.1406 18.9844
Q23.2969 23.3906 27.7344 27.7344
Q37.1094 36.8125 40.5781 42.1562
Q44.0469 47.5156 44.0469 53.7188
Q44.0469 59.375 40.3125 62.5625
Q36.5781 65.7656 29.8906 65.7656
Q25.4375 65.7656 20.2656 64.2031
Q15.0938 62.6406 10.1562 59.4219
L9.67188 59.4219
L9.67188 69.6719
Q13.1406 71.3906 18.9219 72.7969
Q24.7031 74.2188 30.125 74.2188
Q41.3125 74.2188 47.6562 68.8125
Q54 63.4219 54 54.2031
Q54 50.0469 52.9531 46.4531
Q51.9062 42.875 49.8594 39.6562
Q47.9531 36.625 45.3906 33.6875
Q42.8281 30.7656 39.1562 27.2031
Q33.9375 22.0781 28.3594 17.2656
Q22.7969 12.4531 17.9688 8.34375
L57.0781 8.34375
z
" id="Verdana-32"/>
      </defs>
      <g transform="translate(308.879462433 401.918125)scale(0.12 -0.12)">
       <use xlink:href="#Verdana-32"/>
       <use x="63.57421875" xlink:href="#Verdana-30"/>
       <use x="127.1484375" xlink:href="#Verdana-30"/>
       <use x="190.72265625" xlink:href="#Verdana-30"/>
       <use x="254.296875" xlink:href="#Verdana-30"/>
      </g>
     </g>
    </g>
    <g id="xtick_6">
     <g id="line2d_15">
      <g>
       <use style="stroke:#000000;stroke-width:0.5;" x="390.857143402" xlink:href="#mc7db9fdffb" y="388.8"/>
      </g>
     </g>
     <g id="line2d_16">
      <g>
       <use style="stroke:#000000;stroke-width:0.5;" x="390.857143402" xlink:href="#m5a7d422ac3" y="43.2"/>
      </g>
     </g>
     <g id="text_6">
      <!-- 25000 -->
      <g transform="translate(372.650893402 401.918125)scale(0.12 -0.12)">
       <use xlink:href="#Verdana-32"/>
       <use x="63.57421875" xlink:href="#Verdana-35"/>
       <use x="127.1484375" xlink:href="#Verdana-30"/>
       <use x="190.72265625" xlink:href="#Verdana-30"/>
       <use x="254.296875" xlink:href="#Verdana-30"/>
      </g>
     </g>
    </g>
    <g id="xtick_7">
     <g id="line2d_17">
      <g>
       <use style="stroke:#000000;stroke-width:0.5;" x="454.628570557" xlink:href="#mc7db9fdffb" y="388.8"/>
      </g>
     </g>
     <g id="line2d_18">
      <g>
       <use style="stroke:#000000;stroke-width:0.5;" x="454.628570557" xlink:href="#m5a7d422ac3" y="43.2"/>
      </g>
     </g>
     <g id="text_7">
      <!-- 30000 -->
      <defs>
       <path d="
M50.6875 35.0156
Q53.0312 32.9062 54.5469 29.7344
Q56.0625 26.5625 56.0625 21.5312
Q56.0625 16.5469 54.25 12.3906
Q52.4375 8.25 49.1719 5.17188
Q45.5156 1.76562 40.5469 0.125
Q35.5938 -1.51562 29.6875 -1.51562
Q23.6406 -1.51562 17.7812 -0.0625
Q11.9219 1.375 8.15625 3.07812
L8.15625 13.2812
L8.89062 13.2812
Q13.0312 10.5469 18.6406 8.73438
Q24.2656 6.9375 29.5 6.9375
Q32.5625 6.9375 36.0312 7.95312
Q39.5 8.98438 41.6562 10.9844
Q43.8906 13.1406 44.9844 15.7188
Q46.0938 18.3125 46.0938 22.2656
Q46.0938 26.1719 44.8438 28.7344
Q43.6094 31.2969 41.4062 32.7656
Q39.2031 34.2812 36.0781 34.8438
Q32.9531 35.4062 29.3438 35.4062
L24.9531 35.4062
L24.9531 43.5
L28.375 43.5
Q35.7969 43.5 40.2031 46.5938
Q44.625 49.7031 44.625 55.6719
Q44.625 58.2969 43.5 60.2656
Q42.3906 62.25 40.375 63.5312
Q38.2812 64.7969 35.8906 65.2812
Q33.5 65.7656 30.4688 65.7656
Q25.8281 65.7656 20.5938 64.1094
Q15.375 62.4531 10.75 59.4219
L10.25 59.4219
L10.25 69.625
Q13.7188 71.3438 19.5 72.7812
Q25.2969 74.2188 30.7188 74.2188
Q36.0312 74.2188 40.0781 73.2344
Q44.1406 72.2656 47.4062 70.125
Q50.9219 67.7812 52.7344 64.4531
Q54.5469 61.1406 54.5469 56.6875
Q54.5469 50.6406 50.2656 46.125
Q46 41.6094 40.1875 40.4375
L40.1875 39.75
Q42.5312 39.3594 45.5469 38.1094
Q48.5781 36.8594 50.6875 35.0156" id="Verdana-33"/>
      </defs>
      <g transform="translate(436.440133057 401.918125)scale(0.12 -0.12)">
       <use xlink:href="#Verdana-33"/>
       <use x="63.57421875" xlink:href="#Verdana-30"/>
       <use x="127.1484375" xlink:href="#Verdana-30"/>
       <use x="190.72265625" xlink:href="#Verdana-30"/>
       <use x="254.296875" xlink:href="#Verdana-30"/>
      </g>
     </g>
    </g>
    <g id="xtick_8">
     <g id="line2d_19">
      <g>
       <use style="stroke:#000000;stroke-width:0.5;" x="518.400001526" xlink:href="#mc7db9fdffb" y="388.8"/>
      </g>
     </g>
     <g id="line2d_20">
      <g>
       <use style="stroke:#000000;stroke-width:0.5;" x="518.400001526" xlink:href="#m5a7d422ac3" y="43.2"/>
      </g>
     </g>
     <g id="text_8">
      <!-- 35000 -->
      <g transform="translate(500.211564026 401.918125)scale(0.12 -0.12)">
       <use xlink:href="#Verdana-33"/>
       <use x="63.57421875" xlink:href="#Verdana-35"/>
       <use x="127.1484375" xlink:href="#Verdana-30"/>
       <use x="190.72265625" xlink:href="#Verdana-30"/>
       <use x="254.296875" xlink:href="#Verdana-30"/>
      </g>
     </g>
    </g>
    <g id="text_9">
     <!-- Unix Time -->
     <defs>
      <path d="
M61.625 64.1094
L35.6406 64.1094
L35.6406 0
L25.9844 0
L25.9844 64.1094
L0 64.1094
L0 72.7031
L61.625 72.7031
z
" id="Verdana-54"/>
      <path d="
M64.5 29.2031
Q64.5 21.2969 62.7656 15.4062
Q61.0312 9.51562 57.0781 5.60938
Q53.3281 1.90625 48.2969 0.1875
Q43.2656 -1.51562 36.5781 -1.51562
Q29.7344 -1.51562 24.6562 0.28125
Q19.5781 2.09375 16.1094 5.60938
Q12.1562 9.625 10.4219 15.2812
Q8.6875 20.9531 8.6875 29.2031
L8.6875 72.7031
L18.3594 72.7031
L18.3594 28.7188
Q18.3594 22.7969 19.1562 19.375
Q19.9688 15.9688 21.875 13.1875
Q24.0312 10.0156 27.7031 8.39062
Q31.3906 6.78125 36.5781 6.78125
Q41.7969 6.78125 45.4531 8.375
Q49.125 9.96875 51.3125 13.1875
Q53.2188 15.9688 54.0156 19.5469
Q54.8281 23.1406 54.8281 28.4688
L54.8281 72.7031
L64.5 72.7031
z
" id="Verdana-55"/>
      <path d="
M18.8906 63.6719
L8.54688 63.6719
L8.54688 73.1875
L18.8906 73.1875
z

M18.3125 0
L9.125 0
L9.125 54.5469
L18.3125 54.5469
z
" id="Verdana-69"/>
      <path d="
M88.625 0
L79.4375 0
L79.4375 31.0625
Q79.4375 34.5781 79.125 37.8438
Q78.8125 41.1094 77.7812 43.0625
Q76.6562 45.1719 74.5625 46.2344
Q72.4688 47.3125 68.5 47.3125
Q64.6562 47.3125 60.7969 45.375
Q56.9375 43.4531 53.0781 40.4844
Q53.2188 39.3594 53.3125 37.8594
Q53.4219 36.375 53.4219 34.9062
L53.4219 0
L44.2344 0
L44.2344 31.0625
Q44.2344 34.6719 43.9219 37.9062
Q43.6094 41.1562 42.5781 43.1094
Q41.4531 45.2188 39.3438 46.2656
Q37.25 47.3125 33.2969 47.3125
Q29.5469 47.3125 25.75 45.4531
Q21.9688 43.6094 18.2188 40.7188
L18.2188 0
L9.03125 0
L9.03125 54.5469
L18.2188 54.5469
L18.2188 48.4844
Q22.5156 52.0469 26.7812 54.0469
Q31.0625 56.0625 35.8906 56.0625
Q41.4531 56.0625 45.3281 53.7188
Q49.2188 51.375 51.125 47.2188
Q56.6875 51.9062 61.2812 53.9844
Q65.875 56.0625 71.0938 56.0625
Q80.0781 56.0625 84.3438 50.6094
Q88.625 45.1719 88.625 35.4062
z
" id="Verdana-6d"/>
      <path d="
M54.6406 0
L45.4531 0
L45.4531 31.0625
Q45.4531 34.8125 45.0156 38.1094
Q44.5781 41.4062 43.4062 43.2656
Q42.1875 45.3125 39.8906 46.3125
Q37.5938 47.3125 33.9375 47.3125
Q30.1719 47.3125 26.0625 45.4531
Q21.9688 43.6094 18.2188 40.7188
L18.2188 0
L9.03125 0
L9.03125 54.5469
L18.2188 54.5469
L18.2188 48.4844
Q22.5156 52.0469 27.0938 54.0469
Q31.6875 56.0625 36.5312 56.0625
Q45.3594 56.0625 50 50.7344
Q54.6406 45.4062 54.6406 35.4062
z
" id="Verdana-6e"/>
      <path id="Verdana-20"/>
      <path d="
M56.25 0
L44.6719 0
L29.2031 20.9531
L13.625 0
L2.9375 0
L24.2188 27.2031
L3.125 54.5469
L14.7031 54.5469
L30.0781 33.9375
L45.5156 54.5469
L56.25 54.5469
L34.8125 27.6875
z
" id="Verdana-78"/>
      <path d="
M54.6875 26.3125
L14.5 26.3125
Q14.5 21.2969 16.0156 17.5469
Q17.5312 13.8125 20.1719 11.4219
Q22.7031 9.07812 26.1875 7.90625
Q29.6875 6.73438 33.8906 6.73438
Q39.4531 6.73438 45.0938 8.95312
Q50.7344 11.1875 53.125 13.3281
L53.6094 13.3281
L53.6094 3.32812
Q48.9688 1.375 44.1406 0.046875
Q39.3125 -1.26562 33.9844 -1.26562
Q20.4062 -1.26562 12.7812 6.07812
Q5.17188 13.4219 5.17188 26.9531
Q5.17188 40.3281 12.4688 48.1875
Q19.7812 56.0625 31.6875 56.0625
Q42.7188 56.0625 48.7031 49.6094
Q54.6875 43.1719 54.6875 31.2969
z

M45.75 33.3438
Q45.7031 40.5781 42.1094 44.5312
Q38.5312 48.4844 31.2031 48.4844
Q23.8281 48.4844 19.4531 44.1406
Q15.0938 39.7969 14.5 33.3438
z
" id="Verdana-65"/>
     </defs>
     <g transform="translate(265.2440625 418.45125)scale(0.12 -0.12)">
      <use xlink:href="#Verdana-55"/>
      <use x="73.193359375" xlink:href="#Verdana-6e"/>
      <use x="136.474609375" xlink:href="#Verdana-69"/>
      <use x="163.916015625" xlink:href="#Verdana-78"/>
      <use x="223.095703125" xlink:href="#Verdana-20"/>
      <use x="258.251953125" xlink:href="#Verdana-54"/>
      <use x="319.873046875" xlink:href="#Verdana-69"/>
      <use x="347.314453125" xlink:href="#Verdana-6d"/>
      <use x="444.580078125" xlink:href="#Verdana-65"/>
     </g>
    </g>
    <g id="text_10">
     <!-- +1.41719556e12 -->
     <defs>
      <path d="
M71.5781 27.9375
L44.9688 27.9375
L44.9688 1.3125
L36.8594 1.3125
L36.8594 27.9375
L10.25 27.9375
L10.25 35.75
L36.8594 35.75
L36.8594 62.3594
L44.9688 62.3594
L44.9688 35.75
L71.5781 35.75
z
" id="Verdana-2b"/>
      <path d="
M58.7344 20.4531
L47.9531 20.4531
L47.9531 0
L38.5781 0
L38.5781 20.4531
L3.76562 20.4531
L3.76562 31.6875
L38.9688 72.7031
L47.9531 72.7031
L47.9531 28.2656
L58.7344 28.2656
z

M38.5781 28.2656
L38.5781 61.0781
L10.4062 28.2656
z
" id="Verdana-34"/>
      <path d="
M57.2812 61.8125
L24.3594 0
L13.9219 0
L48.9219 64.1562
L7.51562 64.1562
L7.51562 72.7031
L57.2812 72.7031
z
" id="Verdana-37"/>
      <path d="
M24.0312 0
L12.3594 0
L12.3594 13.9219
L24.0312 13.9219
z
" id="Verdana-2e"/>
      <path d="
M58.1562 23.5781
Q58.1562 12.5 50.8594 5.48438
Q43.5625 -1.51562 32.9531 -1.51562
Q27.5938 -1.51562 23.1875 0.140625
Q18.7969 1.8125 15.4375 5.07812
Q11.2344 9.125 8.95312 15.8125
Q6.6875 22.5156 6.6875 31.9375
Q6.6875 41.6094 8.76562 49.0781
Q10.8438 56.5469 15.375 62.3594
Q19.6719 67.875 26.4531 70.9688
Q33.25 74.0781 42.2812 74.0781
Q45.1719 74.0781 47.125 73.8281
Q49.0781 73.5781 51.0781 72.9531
L51.0781 63.625
L50.5938 63.625
Q49.2188 64.3594 46.4531 65.0156
Q43.7031 65.6719 40.8281 65.6719
Q30.3281 65.6719 24.0781 59.1094
Q17.8281 52.5469 16.7969 41.3594
Q20.9062 43.8438 24.875 45.1406
Q28.8594 46.4375 34.0781 46.4375
Q38.7188 46.4375 42.25 45.5781
Q45.7969 44.7344 49.5156 42.1406
Q53.8125 39.1562 55.9844 34.6094
Q58.1562 30.0781 58.1562 23.5781
M48.25 23.1875
Q48.25 27.7344 46.9062 30.7031
Q45.5625 33.6875 42.4844 35.8906
Q40.2344 37.4531 37.5 37.9375
Q34.7656 38.4219 31.7812 38.4219
Q27.6406 38.4219 24.0781 37.4375
Q20.5156 36.4688 16.75 34.4219
Q16.6562 33.3438 16.5938 32.3438
Q16.5469 31.3438 16.5469 29.8281
Q16.5469 22.125 18.1406 17.6562
Q19.7344 13.1875 22.5156 10.5938
Q24.75 8.45312 27.3594 7.45312
Q29.9844 6.45312 33.0625 6.45312
Q40.1406 6.45312 44.1875 10.7656
Q48.25 15.0938 48.25 23.1875" id="Verdana-36"/>
      <path d="
M56.9844 40.7188
Q56.9844 31.2031 54.8125 23.4375
Q52.6406 15.6719 48.25 10.2031
Q43.7969 4.64062 37.1094 1.60938
Q30.4219 -1.42188 21.3906 -1.42188
Q18.8438 -1.42188 16.5938 -1.14062
Q14.3594 -0.875 12.5938 -0.296875
L12.5938 9.03125
L13.0938 9.03125
Q14.5 8.29688 17.0781 7.64062
Q19.6719 6.98438 22.8594 6.98438
Q33.6406 6.98438 39.7656 13.4531
Q45.9062 19.9219 46.875 31.2969
Q42.3281 28.5625 38.3281 27.3906
Q34.3281 26.2188 29.5938 26.2188
Q25.0938 26.2188 21.4531 27.0938
Q17.8281 27.9844 14.1562 30.5156
Q9.85938 33.5 7.6875 38.0781
Q5.51562 42.6719 5.51562 49.0781
Q5.51562 60.2031 12.8438 67.1875
Q20.1719 74.1719 30.7188 74.1719
Q35.9844 74.1719 40.4688 72.5312
Q44.9688 70.9062 48.3438 67.625
Q52.4844 63.5781 54.7344 57.2031
Q56.9844 50.8281 56.9844 40.7188
M47.125 42.8281
Q47.125 50.3906 45.5625 54.9844
Q44 59.5781 41.2656 62.1094
Q38.9688 64.3125 36.3281 65.2656
Q33.6875 66.2188 30.6094 66.2188
Q23.5781 66.2188 19.5 61.8125
Q15.4375 57.4219 15.4375 49.4688
Q15.4375 44.8281 16.75 41.8906
Q18.0625 38.9688 21.1875 36.7656
Q23.3906 35.25 26.0156 34.7344
Q28.6562 34.2344 31.8906 34.2344
Q35.6875 34.2344 39.5938 35.25
Q43.5 36.2812 46.9219 38.2344
Q46.9688 39.2656 47.0469 40.2656
Q47.125 41.2656 47.125 42.8281" id="Verdana-39"/>
     </defs>
     <g transform="translate(415.15125 416.45125)scale(0.12 -0.12)">
      <use xlink:href="#Verdana-2b"/>
      <use x="81.8359375" xlink:href="#Verdana-31"/>
      <use x="145.41015625" xlink:href="#Verdana-2e"/>
      <use x="181.787109375" xlink:href="#Verdana-34"/>
      <use x="245.361328125" xlink:href="#Verdana-31"/>
      <use x="308.935546875" xlink:href="#Verdana-37"/>
      <use x="372.509765625" xlink:href="#Verdana-31"/>
      <use x="436.083984375" xlink:href="#Verdana-39"/>
      <use x="499.658203125" xlink:href="#Verdana-35"/>
      <use x="563.232421875" xlink:href="#Verdana-35"/>
      <use x="626.806640625" xlink:href="#Verdana-36"/>
      <use x="690.380859375" xlink:href="#Verdana-65"/>
      <use x="749.951171875" xlink:href="#Verdana-31"/>
      <use x="813.525390625" xlink:href="#Verdana-32"/>
     </g>
    </g>
   </g>
   <g id="matplotlib.axis_2">
    <g id="ytick_1">
     <g id="line2d_21">
      <defs>
       <path d="
M0 0
L4 0" id="md7965d1ba0" style="stroke:#000000;stroke-width:0.5;"/>
      </defs>
      <g>
       <use style="stroke:#000000;stroke-width:0.5;" x="72.0" xlink:href="#md7965d1ba0" y="388.8"/>
      </g>
     </g>
     <g id="line2d_22">
      <defs>
       <path d="
M0 0
L-4 0" id="md9a1c1a7cd" style="stroke:#000000;stroke-width:0.5;"/>
      </defs>
      <g>
       <use style="stroke:#000000;stroke-width:0.5;" x="518.4" xlink:href="#md9a1c1a7cd" y="388.8"/>
      </g>
     </g>
     <g id="text_11">
      <!-- 0 -->
      <g transform="translate(61.964375 392.1515625)scale(0.12 -0.12)">
       <use xlink:href="#Verdana-30"/>
      </g>
     </g>
    </g>
    <g id="ytick_2">
     <g id="line2d_23">
      <g>
       <use style="stroke:#000000;stroke-width:0.5;" x="72.0" xlink:href="#md7965d1ba0" y="319.68"/>
      </g>
     </g>
     <g id="line2d_24">
      <g>
       <use style="stroke:#000000;stroke-width:0.5;" x="518.4" xlink:href="#md9a1c1a7cd" y="319.68"/>
      </g>
     </g>
     <g id="text_12">
      <!-- 20 -->
      <g transform="translate(54.475625 323.0315625)scale(0.12 -0.12)">
       <use xlink:href="#Verdana-32"/>
       <use x="63.57421875" xlink:href="#Verdana-30"/>
      </g>
     </g>
    </g>
    <g id="ytick_3">
     <g id="line2d_25">
      <g>
       <use style="stroke:#000000;stroke-width:0.5;" x="72.0" xlink:href="#md7965d1ba0" y="250.56"/>
      </g>
     </g>
     <g id="line2d_26">
      <g>
       <use style="stroke:#000000;stroke-width:0.5;" x="518.4" xlink:href="#md9a1c1a7cd" y="250.56"/>
      </g>
     </g>
     <g id="text_13">
      <!-- 40 -->
      <g transform="translate(53.984375 253.9115625)scale(0.12 -0.12)">
       <use xlink:href="#Verdana-34"/>
       <use x="63.57421875" xlink:href="#Verdana-30"/>
      </g>
     </g>
    </g>
    <g id="ytick_4">
     <g id="line2d_27">
      <g>
       <use style="stroke:#000000;stroke-width:0.5;" x="72.0" xlink:href="#md7965d1ba0" y="181.44"/>
      </g>
     </g>
     <g id="line2d_28">
      <g>
       <use style="stroke:#000000;stroke-width:0.5;" x="518.4" xlink:href="#md9a1c1a7cd" y="181.44"/>
      </g>
     </g>
     <g id="text_14">
      <!-- 60 -->
      <g transform="translate(54.335 184.7915625)scale(0.12 -0.12)">
       <use xlink:href="#Verdana-36"/>
       <use x="63.57421875" xlink:href="#Verdana-30"/>
      </g>
     </g>
    </g>
    <g id="ytick_5">
     <g id="line2d_29">
      <g>
       <use style="stroke:#000000;stroke-width:0.5;" x="72.0" xlink:href="#md7965d1ba0" y="112.32"/>
      </g>
     </g>
     <g id="line2d_30">
      <g>
       <use style="stroke:#000000;stroke-width:0.5;" x="518.4" xlink:href="#md9a1c1a7cd" y="112.32"/>
      </g>
     </g>
     <g id="text_15">
      <!-- 80 -->
      <defs>
       <path d="
M57.625 20.2656
Q57.625 10.8438 50.2656 4.59375
Q42.9219 -1.65625 31.7812 -1.65625
Q19.9688 -1.65625 12.9531 4.4375
Q5.95312 10.5469 5.95312 20.0625
Q5.95312 26.125 9.46875 31.0312
Q12.9844 35.9375 19.3906 38.8125
L19.3906 39.1094
Q13.5312 42.2344 10.7188 45.9375
Q7.90625 49.6562 7.90625 55.2188
Q7.90625 63.4219 14.6406 68.8906
Q21.3906 74.3594 31.7812 74.3594
Q42.6719 74.3594 49.1719 69.1406
Q55.6719 63.9219 55.6719 55.8594
Q55.6719 50.9219 52.5938 46.1562
Q49.5156 41.4062 43.5625 38.7188
L43.5625 38.4219
Q50.3906 35.5 54 31.2031
Q57.625 26.9062 57.625 20.2656
M46.0469 55.7656
Q46.0469 60.9844 42.0156 64.0781
Q37.9844 67.1875 31.7344 67.1875
Q25.5938 67.1875 21.6562 64.25
Q17.7188 61.3281 17.7188 56.3438
Q17.7188 52.8281 19.7031 50.2656
Q21.6875 47.7031 25.6875 45.7031
Q27.4844 44.8281 30.875 43.4062
Q34.2812 42 37.5 41.0625
Q42.3281 44.2812 44.1875 47.75
Q46.0469 51.2188 46.0469 55.7656
M47.5625 19.3438
Q47.5625 23.8281 45.5781 26.5312
Q43.6094 29.25 37.8438 31.9844
Q35.5469 33.0625 32.8125 33.9844
Q30.0781 34.9062 25.5312 36.5781
Q21.1406 34.1875 18.4844 30.0781
Q15.8281 25.9844 15.8281 20.7969
Q15.8281 14.2031 20.3594 9.90625
Q24.9062 5.60938 31.8906 5.60938
Q39.0156 5.60938 43.2812 9.26562
Q47.5625 12.9375 47.5625 19.3438" id="Verdana-38"/>
      </defs>
      <g transform="translate(54.246875 115.6715625)scale(0.12 -0.12)">
       <use xlink:href="#Verdana-38"/>
       <use x="63.57421875" xlink:href="#Verdana-30"/>
      </g>
     </g>
    </g>
    <g id="ytick_6">
     <g id="line2d_31">
      <g>
       <use style="stroke:#000000;stroke-width:0.5;" x="72.0" xlink:href="#md7965d1ba0" y="43.2"/>
      </g>
     </g>
     <g id="line2d_32">
      <g>
       <use style="stroke:#000000;stroke-width:0.5;" x="518.4" xlink:href="#md9a1c1a7cd" y="43.2"/>
      </g>
     </g>
     <g id="text_16">
      <!-- 100 -->
      <g transform="translate(47.5325 46.5515625)scale(0.12 -0.12)">
       <use xlink:href="#Verdana-31"/>
       <use x="63.57421875" xlink:href="#Verdana-30"/>
       <use x="127.1484375" xlink:href="#Verdana-30"/>
      </g>
     </g>
    </g>
    <g id="text_17">
     <!-- RSSI -->
     <defs>
      <path d="
M69.9219 0
L57.375 0
L33.0625 28.9062
L19.4375 28.9062
L19.4375 0
L9.76562 0
L9.76562 72.7031
L30.125 72.7031
Q36.7188 72.7031 41.1094 71.8438
Q45.5156 71 49.0312 68.7969
Q52.9844 66.3125 55.2031 62.5156
Q57.4219 58.7344 57.4219 52.9375
Q57.4219 45.0625 53.4688 39.7656
Q49.5156 34.4688 42.5781 31.7812
z

M47.3125 52.25
Q47.3125 55.375 46.2188 57.7812
Q45.125 60.2031 42.5781 61.8594
Q40.4844 63.2812 37.5938 63.8438
Q34.7188 64.4062 30.8125 64.4062
L19.4375 64.4062
L19.4375 36.9688
L29.2031 36.9688
Q33.7969 36.9688 37.2031 37.7656
Q40.625 38.5781 43.0156 40.7656
Q45.2188 42.8281 46.2656 45.4844
Q47.3125 48.1406 47.3125 52.25" id="Verdana-52"/>
      <path d="
M62.5938 20.75
Q62.5938 16.5 60.6094 12.3438
Q58.6406 8.20312 55.0781 5.32812
Q51.1719 2.20312 45.9688 0.4375
Q40.7656 -1.3125 33.4531 -1.3125
Q25.5938 -1.3125 19.3125 0.140625
Q13.0312 1.60938 6.54688 4.5
L6.54688 16.6094
L7.23438 16.6094
Q12.75 12.0156 19.9688 9.51562
Q27.2031 7.03125 33.5469 7.03125
Q42.5312 7.03125 47.5312 10.3906
Q52.5469 13.7656 52.5469 19.3906
Q52.5469 24.2188 50.1719 26.5156
Q47.7969 28.8125 42.9688 30.0781
Q39.3125 31.0625 35.0312 31.6875
Q30.7656 32.3281 25.9844 33.2969
Q16.3125 35.3594 11.6406 40.3125
Q6.98438 45.2656 6.98438 53.2188
Q6.98438 62.3594 14.6875 68.1875
Q22.4062 74.0312 34.2812 74.0312
Q41.9375 74.0312 48.3281 72.5625
Q54.7344 71.0938 59.6719 68.9531
L59.6719 57.5156
L58.9844 57.5156
Q54.8281 61.0312 48.0625 63.3438
Q41.3125 65.6719 34.2344 65.6719
Q26.4688 65.6719 21.75 62.4531
Q17.0469 59.2344 17.0469 54.1562
Q17.0469 49.6094 19.3906 47.0156
Q21.7344 44.4375 27.6406 43.0625
Q30.7656 42.3906 36.5156 41.4062
Q42.2812 40.4375 46.2969 39.4062
Q54.3906 37.25 58.4844 32.9062
Q62.5938 28.5625 62.5938 20.75" id="Verdana-53"/>
      <path d="
M35.4062 0
L6.6875 0
L6.6875 7.42188
L16.2188 7.42188
L16.2188 65.2812
L6.6875 65.2812
L6.6875 72.7031
L35.4062 72.7031
L35.4062 65.2812
L25.875 65.2812
L25.875 7.42188
L35.4062 7.42188
z
" id="Verdana-49"/>
     </defs>
     <g transform="translate(40.1175 229.8459375)rotate(-90.0)scale(0.12 -0.12)">
      <use xlink:href="#Verdana-52"/>
      <use x="69.53125" xlink:href="#Verdana-53"/>
      <use x="136.765625" xlink:href="#Verdana-53"/>
      <use x="205.125" xlink:href="#Verdana-49"/>
     </g>
    </g>
   </g>
   <g id="patch_3">
    <path d="
M72 388.8
L518.4 388.8" style="fill:none;stroke:#000000;"/>
   </g>
   <g id="patch_4">
    <path d="
M72 43.2
L518.4 43.2" style="fill:none;stroke:#000000;"/>
   </g>
   <g id="patch_5">
    <path d="
M518.4 388.8
L518.4 43.2" style="fill:none;stroke:#000000;"/>
   </g>
   <g id="patch_6">
    <path d="
M72 388.8
L72 43.2" style="fill:none;stroke:#000000;"/>
   </g>
   <g id="text_18">
    <!-- RSSI Against Time of Reader at (6,0) and Tag at (0,3) -->
    <defs>
     <path d="
M38.375 67.0938
L37.8906 67.0938
Q36.375 67.5312 33.9375 67.9844
Q31.5 68.4531 29.6406 68.4531
Q23.7344 68.4531 21.0625 65.8438
Q18.4062 63.2344 18.4062 56.3906
L18.4062 54.5469
L34.9688 54.5469
L34.9688 46.8281
L18.7031 46.8281
L18.7031 0
L9.51562 0
L9.51562 46.8281
L3.32812 46.8281
L3.32812 54.5469
L9.51562 54.5469
L9.51562 56.3438
Q9.51562 66.0625 14.3438 71.2656
Q19.1875 76.4688 28.3281 76.4688
Q31.3906 76.4688 33.8594 76.1719
Q36.3281 75.875 38.375 75.4844
z
" id="Verdana-66"/>
     <path d="
M38.2344 -20.125
L27.0469 -20.125
Q18.4062 -10.2031 13.625 1.51562
Q8.84375 13.2344 8.84375 27.9375
Q8.84375 42.625 13.625 54.3438
Q18.4062 66.0625 27.0469 75.9844
L38.2344 75.9844
L38.2344 75.4844
Q34.2812 71.9219 30.6875 67.25
Q27.0938 62.5938 24.0312 56.3906
Q21.0938 50.3906 19.2656 43.1562
Q17.4375 35.9375 17.4375 27.9375
Q17.4375 19.5781 19.2188 12.6406
Q21 5.71875 24.0312 -0.53125
Q26.9531 -6.54688 30.7031 -11.4062
Q34.4688 -16.2656 38.2344 -19.625
z
" id="Verdana-28"/>
     <path d="
M53.2656 6.20312
Q53.2656 -7.67188 46.9688 -14.1562
Q40.6719 -20.6562 27.5938 -20.6562
Q23.25 -20.6562 19.1094 -20.0469
Q14.9844 -19.4375 10.9844 -18.3125
L10.9844 -8.9375
L11.4688 -8.9375
Q13.7188 -9.8125 18.5938 -11.1094
Q23.4844 -12.4062 28.375 -12.4062
Q33.0625 -12.4062 36.125 -11.2812
Q39.2031 -10.1562 40.9219 -8.15625
Q42.625 -6.25 43.3594 -3.5625
Q44.0938 -0.875 44.0938 2.4375
L44.0938 7.42188
Q39.9375 4.10938 36.1562 2.46875
Q32.375 0.828125 26.5156 0.828125
Q16.75 0.828125 11.0156 7.875
Q5.28125 14.9375 5.28125 27.7812
Q5.28125 34.8125 7.25 39.9062
Q9.23438 45.0156 12.6406 48.7344
Q15.8281 52.2031 20.3594 54.125
Q24.9062 56.0625 29.3906 56.0625
Q34.125 56.0625 37.3281 55.1094
Q40.5312 54.1562 44.0938 52.2031
L44.6719 54.5469
L53.2656 54.5469
z

M44.0938 14.9844
L44.0938 44.7344
Q40.4375 46.3906 37.2812 47.0938
Q34.125 47.7969 31 47.7969
Q23.4375 47.7969 19.0938 42.7188
Q14.75 37.6406 14.75 27.9844
Q14.75 18.7969 17.9688 14.0625
Q21.1875 9.32812 28.6562 9.32812
Q32.6719 9.32812 36.6875 10.8594
Q40.7188 12.4062 44.0938 14.9844" id="Verdana-67"/>
     <path d="
M28.0781 13.9219
L14.3125 -18.0625
L7.17188 -18.0625
L15.6719 13.9219
z
" id="Verdana-2c"/>
     <path d="
M37.3594 0.484375
Q34.7656 -0.203125 31.7031 -0.640625
Q28.6562 -1.07812 26.2656 -1.07812
Q17.9219 -1.07812 13.5781 3.40625
Q9.23438 7.90625 9.23438 17.8281
L9.23438 46.8281
L3.03125 46.8281
L3.03125 54.5469
L9.23438 54.5469
L9.23438 70.2188
L18.4062 70.2188
L18.4062 54.5469
L37.3594 54.5469
L37.3594 46.8281
L18.4062 46.8281
L18.4062 21.9688
Q18.4062 17.6719 18.5938 15.25
Q18.7969 12.8438 19.9688 10.75
Q21.0469 8.79688 22.9219 7.89062
Q24.8125 6.98438 28.6562 6.98438
Q30.9062 6.98438 33.3438 7.64062
Q35.7969 8.29688 36.8594 8.73438
L37.3594 8.73438
z
" id="Verdana-74"/>
     <path d="
M51.4219 0
L42.2812 0
L42.2812 5.8125
Q41.0625 4.98438 38.9844 3.48438
Q36.9219 2 34.9688 1.125
Q32.6719 0 29.6875 -0.75
Q26.7031 -1.51562 22.7031 -1.51562
Q15.3281 -1.51562 10.2031 3.35938
Q5.07812 8.25 5.07812 15.8281
Q5.07812 22.0156 7.73438 25.8438
Q10.4062 29.6875 15.3281 31.8906
Q20.3125 34.0781 27.2969 34.8594
Q34.2812 35.6406 42.2812 36.0312
L42.2812 37.4531
Q42.2812 40.5781 41.1875 42.625
Q40.0938 44.6719 38.0312 45.8438
Q36.0781 46.9688 33.3438 47.3594
Q30.6094 47.75 27.6406 47.75
Q24.0312 47.75 19.5781 46.7969
Q15.1406 45.8438 10.4062 44.0469
L9.90625 44.0469
L9.90625 53.375
Q12.5938 54.1094 17.6719 54.9844
Q22.75 55.8594 27.6875 55.8594
Q33.4531 55.8594 37.7188 54.9062
Q42 53.9531 45.125 51.6562
Q48.1875 49.4219 49.7969 45.8438
Q51.4219 42.2812 51.4219 37.0156
z

M42.2812 13.4219
L42.2812 28.6094
Q38.0938 28.375 32.3906 27.875
Q26.7031 27.3906 23.3906 26.4688
Q19.4375 25.3438 16.9844 22.9688
Q14.5469 20.6094 14.5469 16.4531
Q14.5469 11.7656 17.375 9.39062
Q20.2188 7.03125 26.0312 7.03125
Q30.8594 7.03125 34.8594 8.90625
Q38.875 10.7969 42.2812 13.4219" id="Verdana-61"/>
     <path d="
M53.2656 0
L44.0938 0
L44.0938 5.71875
Q40.1406 2.29688 35.8438 0.390625
Q31.5469 -1.51562 26.5156 -1.51562
Q16.75 -1.51562 11.0156 6
Q5.28125 13.5312 5.28125 26.8594
Q5.28125 33.7969 7.25 39.2031
Q9.23438 44.625 12.5938 48.4375
Q15.9219 52.1562 20.3281 54.1094
Q24.75 56.0625 29.5 56.0625
Q33.7969 56.0625 37.1094 55.1562
Q40.4375 54.25 44.0938 52.3438
L44.0938 75.9844
L53.2656 75.9844
z

M44.0938 13.4219
L44.0938 44.7344
Q40.375 46.3906 37.4375 47.0156
Q34.5156 47.6562 31.0625 47.6562
Q23.3438 47.6562 19.0469 42.2812
Q14.75 36.9219 14.75 27.0469
Q14.75 17.3281 18.0625 12.2812
Q21.3906 7.23438 28.7188 7.23438
Q32.625 7.23438 36.625 8.95312
Q40.625 10.6875 44.0938 13.4219" id="Verdana-64"/>
     <path d="
M55.5156 27.25
Q55.5156 13.9219 48.6719 6.20312
Q41.8438 -1.51562 30.375 -1.51562
Q18.7969 -1.51562 11.9844 6.20312
Q5.17188 13.9219 5.17188 27.25
Q5.17188 40.5781 11.9844 48.3125
Q18.7969 56.0625 30.375 56.0625
Q41.8438 56.0625 48.6719 48.3125
Q55.5156 40.5781 55.5156 27.25
M46.0469 27.25
Q46.0469 37.8438 41.8906 42.9844
Q37.75 48.1406 30.375 48.1406
Q22.9062 48.1406 18.7812 42.9844
Q14.6562 37.8438 14.6562 27.25
Q14.6562 17 18.7969 11.6875
Q22.9531 6.39062 30.375 6.39062
Q37.7031 6.39062 41.875 11.6406
Q46.0469 16.8906 46.0469 27.25" id="Verdana-6f"/>
     <path d="
M43.0625 44.5312
L42.5781 44.5312
Q40.5312 45.0156 38.5938 45.2344
Q36.6719 45.4531 34.0312 45.4531
Q29.7812 45.4531 25.8281 43.5781
Q21.875 41.7031 18.2188 38.7188
L18.2188 0
L9.03125 0
L9.03125 54.5469
L18.2188 54.5469
L18.2188 46.4844
Q23.6875 50.875 27.8594 52.7031
Q32.0312 54.5469 36.375 54.5469
Q38.7656 54.5469 39.8438 54.4219
Q40.9219 54.2969 43.0625 53.9531
z
" id="Verdana-72"/>
     <path d="
M36.5781 27.9375
Q36.5781 13.2344 31.7812 1.51562
Q27 -10.2031 18.3594 -20.125
L7.17188 -20.125
L7.17188 -19.625
Q10.9375 -16.2656 14.7188 -11.4062
Q18.5 -6.54688 21.3906 -0.53125
Q24.4219 5.71875 26.2031 12.6406
Q27.9844 19.5781 27.9844 27.9375
Q27.9844 35.9375 26.1719 43.1562
Q24.3594 50.3906 21.3906 56.3906
Q18.3125 62.5938 14.7188 67.25
Q11.1406 71.9219 7.17188 75.4844
L7.17188 75.9844
L18.3594 75.9844
Q27 66.0625 31.7812 54.3438
Q36.5781 42.625 36.5781 27.9375" id="Verdana-29"/>
     <path d="
M48 15.7188
Q48 8.25 41.8125 3.46875
Q35.6406 -1.3125 24.9531 -1.3125
Q18.8906 -1.3125 13.8438 0.125
Q8.79688 1.5625 5.375 3.26562
L5.375 13.5781
L5.85938 13.5781
Q10.2031 10.2969 15.5156 8.375
Q20.8438 6.45312 25.7344 6.45312
Q31.7812 6.45312 35.2031 8.40625
Q38.625 10.3594 38.625 14.5469
Q38.625 17.7812 36.7656 19.4375
Q34.9062 21.0938 29.6406 22.2656
Q27.6875 22.7031 24.5312 23.2812
Q21.3906 23.875 18.7969 24.5625
Q11.625 26.4688 8.60938 30.1562
Q5.60938 33.8438 5.60938 39.2031
Q5.60938 42.5781 7 45.5469
Q8.40625 48.5312 11.2344 50.875
Q13.9688 53.1719 18.1875 54.5156
Q22.4062 55.8594 27.6406 55.8594
Q32.5156 55.8594 37.5156 54.6562
Q42.5312 53.4688 45.8438 51.7656
L45.8438 41.9375
L45.3594 41.9375
Q41.8438 44.5312 36.8125 46.3125
Q31.7812 48.0938 26.9531 48.0938
Q21.9219 48.0938 18.4531 46.1562
Q14.9844 44.2344 14.9844 40.4375
Q14.9844 37.0625 17.0938 35.3594
Q19.1406 33.6406 23.7344 32.5625
Q26.2656 31.9844 29.4062 31.3906
Q32.5625 30.8125 34.6719 30.3281
Q41.0625 28.8594 44.5312 25.2969
Q48 21.6875 48 15.7188" id="Verdana-73"/>
     <path d="
M67.0938 0
L56.7812 0
L49.6562 20.2656
L18.2188 20.2656
L11.0781 0
L1.26562 0
L27.7344 72.7031
L40.625 72.7031
z

M46.6875 28.5625
L33.9375 64.2656
L21.1406 28.5625
z
" id="Verdana-41"/>
    </defs>
    <g transform="translate(99.257625 38.2)scale(0.144 -0.144)">
     <use xlink:href="#Verdana-52"/>
     <use x="69.53125" xlink:href="#Verdana-53"/>
     <use x="136.765625" xlink:href="#Verdana-53"/>
     <use x="205.125" xlink:href="#Verdana-49"/>
     <use x="247.21484375" xlink:href="#Verdana-20"/>
     <use x="282.37109375" xlink:href="#Verdana-41"/>
     <use x="350.73046875" xlink:href="#Verdana-67"/>
     <use x="413.03515625" xlink:href="#Verdana-61"/>
     <use x="473.09375" xlink:href="#Verdana-69"/>
     <use x="500.53515625" xlink:href="#Verdana-6e"/>
     <use x="563.81640625" xlink:href="#Verdana-73"/>
     <use x="615.916015625" xlink:href="#Verdana-74"/>
     <use x="655.3203125" xlink:href="#Verdana-20"/>
     <use x="690.4765625" xlink:href="#Verdana-54"/>
     <use x="752.09765625" xlink:href="#Verdana-69"/>
     <use x="779.5390625" xlink:href="#Verdana-6d"/>
     <use x="876.8046875" xlink:href="#Verdana-65"/>
     <use x="936.375" xlink:href="#Verdana-20"/>
     <use x="971.53125" xlink:href="#Verdana-6f"/>
     <use x="1032.224609375" xlink:href="#Verdana-66"/>
     <use x="1067.380859375" xlink:href="#Verdana-20"/>
     <use x="1102.537109375" xlink:href="#Verdana-52"/>
     <use x="1169.568359375" xlink:href="#Verdana-65"/>
     <use x="1229.138671875" xlink:href="#Verdana-61"/>
     <use x="1289.197265625" xlink:href="#Verdana-64"/>
     <use x="1351.501953125" xlink:href="#Verdana-65"/>
     <use x="1411.072265625" xlink:href="#Verdana-72"/>
     <use x="1453.748046875" xlink:href="#Verdana-20"/>
     <use x="1488.904296875" xlink:href="#Verdana-61"/>
     <use x="1548.962890625" xlink:href="#Verdana-74"/>
     <use x="1588.3671875" xlink:href="#Verdana-20"/>
     <use x="1623.5234375" xlink:href="#Verdana-28"/>
     <use x="1668.93359375" xlink:href="#Verdana-36"/>
     <use x="1732.5078125" xlink:href="#Verdana-2c"/>
     <use x="1768.884765625" xlink:href="#Verdana-30"/>
     <use x="1832.458984375" xlink:href="#Verdana-29"/>
     <use x="1877.869140625" xlink:href="#Verdana-20"/>
     <use x="1913.025390625" xlink:href="#Verdana-61"/>
     <use x="1973.083984375" xlink:href="#Verdana-6e"/>
     <use x="2036.365234375" xlink:href="#Verdana-64"/>
     <use x="2098.669921875" xlink:href="#Verdana-20"/>
     <use x="2133.826171875" xlink:href="#Verdana-54"/>
     <use x="2183.697265625" xlink:href="#Verdana-61"/>
     <use x="2243.755859375" xlink:href="#Verdana-67"/>
     <use x="2306.060546875" xlink:href="#Verdana-20"/>
     <use x="2341.216796875" xlink:href="#Verdana-61"/>
     <use x="2401.275390625" xlink:href="#Verdana-74"/>
     <use x="2440.6796875" xlink:href="#Verdana-20"/>
     <use x="2475.8359375" xlink:href="#Verdana-28"/>
     <use x="2521.24609375" xlink:href="#Verdana-30"/>
     <use x="2584.8203125" xlink:href="#Verdana-2c"/>
     <use x="2621.197265625" xlink:href="#Verdana-33"/>
     <use x="2684.771484375" xlink:href="#Verdana-29"/>
    </g>
   </g>
  </g>
 </g>
 <defs>
  <clipPath id="p7ff5b81e1d">
   <rect height="345.6" width="446.4" x="72.0" y="43.2"/>
  </clipPath>
 </defs>
</svg>
